<?xml version="1.0" encoding="utf-8"?>
<!-- Generator: Adobe Illustrator 15.1.0, SVG Export Plug-In . SVG Version: 6.00 Build 0)  -->
<!DOCTYPE svg PUBLIC "-//W3C//DTD SVG 1.1 Basic//EN" "http://www.w3.org/Graphics/SVG/1.1/DTD/svg11-basic.dtd">
<svg version="1.1" baseProfile="basic" xmlns="http://www.w3.org/2000/svg" xmlns:xlink="http://www.w3.org/1999/xlink" x="0px"
	 y="0px" width="6.325px" height="6.325px" viewBox="0 0 6.325 6.325" xml:space="preserve">
<g id="Layer_1">
	<path fill="#231F20" d="M9.486-26.974C8.495-26.974,8-27.468,8-28.459c0-0.989,0.494-1.486,1.486-1.486
		c0.989,0,1.486,0.497,1.486,1.486C10.973-27.468,10.475-26.974,9.486-26.974z"/>
	<path fill="#231F20" d="M9.486-20.861c-0.849,0-1.274-0.425-1.274-1.273c0-0.85,0.425-1.274,1.274-1.274
		c0.85,0,1.274,0.425,1.274,1.274C10.761-21.286,10.336-20.861,9.486-20.861z"/>
	<path fill="#231F20" d="M9.486-14.75c-0.71,0-1.062-0.352-1.062-1.062c0-0.707,0.352-1.062,1.062-1.062
		c0.707,0,1.062,0.354,1.062,1.062C10.548-15.102,10.193-14.75,9.486-14.75z"/>
	
		<rect x="2.562" y="-3.763" transform="matrix(0.7073 0.7069 -0.7069 0.7073 -1.3101 -3.161)" fill="#231F20" width="1.2" height="1.201"/>
	
		<rect x="2.712" y="2.901" transform="matrix(0.7071 0.7071 -0.7071 0.7071 3.2961 -1.2543)" fill="#231F20" width="0.9" height="0.9"/>
	<path fill="#231F20" d="M9.487-38.901c-1.417,0-2.123-0.707-2.123-2.123c0-1.414,0.707-2.123,2.123-2.123
		c1.414,0,2.124,0.709,2.124,2.123C11.61-39.608,10.9-38.901,9.487-38.901z"/>
	<path fill="#231F20" d="M9.487-32.956c-1.274,0-1.911-0.638-1.911-1.911c0-1.274,0.637-1.911,1.911-1.911s1.911,0.637,1.911,1.911
		C11.398-33.594,10.761-32.956,9.487-32.956z"/>
	<rect x="14.113" y="-30.158" fill="#231F20" width="3.397" height="3.397"/>
	<rect x="14.325" y="-23.622" fill="#231F20" width="2.973" height="2.973"/>
	<rect x="14.537" y="-17.086" fill="#231F20" width="2.548" height="2.549"/>
	<polygon fill="#231F20" points="22.136,-16.987 23.41,-14.439 20.862,-14.439 	"/>
	
		<rect x="2.412" y="-10.138" transform="matrix(0.7071 0.7071 -0.7071 0.7071 -5.7118 -4.9859)" fill="#231F20" width="1.501" height="1.501"/>
	
		<rect x="1.812" y="-36.219" transform="matrix(0.7073 0.7069 -0.7069 0.7073 -23.7226 -12.4421)" fill="#231F20" width="2.702" height="2.703"/>
	<polygon fill="#231F20" points="22.136,-36.598 24.047,-32.775 20.225,-32.775 	"/>
	<rect x="14.962" y="-10.336" fill="#231F20" width="1.698" height="1.699"/>
	<rect x="13.688" y="-43.231" fill="#231F20" width="4.246" height="4.246"/>
	<rect x="13.9" y="-36.695" fill="#231F20" width="3.822" height="3.822"/>
	
		<rect x="1.661" y="-42.406" transform="matrix(0.7071 0.7071 -0.7071 0.7071 -27.9975 -14.2165)" fill="#231F20" width="3.002" height="3.002"/>
	
		<rect x="1.961" y="-29.273" transform="matrix(0.7069 0.7073 -0.7073 0.7069 -18.929 -10.4645)" fill="#231F20" width="2.402" height="2.401"/>
	
		<rect x="2.112" y="-23.187" transform="matrix(0.707 0.7072 -0.7072 0.707 -14.7282 -8.7226)" fill="#231F20" width="2.102" height="2.102"/>
	
		<rect x="2.261" y="-16.712" transform="matrix(0.707 0.7072 -0.7072 0.707 -10.2556 -6.8695)" fill="#231F20" width="1.802" height="1.801"/>
	<polygon fill="#231F20" points="5.509,-47.413 3.162,-45.301 0.815,-47.412 3.163,-49.759 	"/>
	<polygon fill="#231F20" points="22.137,-10.451 23.198,-8.328 21.074,-8.328 	"/>
	<polygon fill="#231F20" points="22.137,-23.986 23.622,-21.014 20.65,-21.014 	"/>
	<polygon fill="#231F20" points="22.137,-30.144 23.835,-26.747 20.438,-26.747 	"/>
	<polygon fill="#231F20" points="22.136,-43.231 24.259,-38.985 20.013,-38.985 	"/>
	<polygon fill="#231F20" points="16.023,-49.865 18.147,-49.865 18.147,-45.194 17.935,-45.194 13.688,-45.194 13.476,-45.194 
		13.476,-49.865 15.599,-49.865 	"/>
	<polygon fill="#231F20" points="5.71,-55.239 3.163,-52.924 0.615,-55.239 3.163,-57.788 	"/>
	<polygon fill="#231F20" points="24.684,-44.988 22.561,-44.988 21.711,-44.988 19.588,-44.988 22.13,-50.072 22.143,-50.072 	"/>
	<rect x="15.387" y="2.737" fill="#231F20" width="0.849" height="0.85"/>
	<rect x="15.174" y="-3.799" fill="#231F20" width="1.274" height="1.273"/>
	<polygon fill="#231F20" points="22.136,2.737 22.561,3.587 21.711,3.587 	"/>
	<polygon fill="#231F20" points="22.137,-4.224 22.985,-2.525 21.287,-2.525 	"/>
	<path fill="#231F20" d="M9.487-2.541c-0.555,0-0.833-0.278-0.833-0.833c0-0.556,0.278-0.833,0.833-0.833
		c0.556,0,0.833,0.277,0.833,0.833C10.32-2.819,10.042-2.541,9.487-2.541z"/>
</g>
<g id="Layer_2">
	<rect y="-50.596" fill="none" width="6.325" height="6.325"/>
	<rect y="-58.519" fill="none" width="6.325" height="6.325"/>
	<rect x="6.325" y="-50.596" fill="none" width="6.324" height="6.325"/>
	<rect x="12.649" y="-50.596" fill="none" width="6.325" height="6.325"/>
	<rect x="18.974" y="-50.596" fill="none" width="6.325" height="6.325"/>
	<rect y="-44.271" fill="none" width="6.325" height="6.324"/>
	<rect x="6.325" y="-44.271" fill="none" width="6.324" height="6.324"/>
	<rect x="12.649" y="-44.271" fill="none" width="6.325" height="6.324"/>
	<rect x="18.974" y="-44.271" fill="none" width="6.325" height="6.324"/>
	<rect y="-37.946" fill="none" width="6.325" height="6.324"/>
	<rect x="6.325" y="-37.946" fill="none" width="6.324" height="6.324"/>
	<rect x="12.649" y="-37.946" fill="none" width="6.325" height="6.324"/>
	<rect x="18.974" y="-37.946" fill="none" width="6.325" height="6.324"/>
	<rect y="-31.622" fill="none" width="6.325" height="6.324"/>
	<rect x="6.325" y="-31.622" fill="none" width="6.324" height="6.324"/>
	<rect x="12.649" y="-31.622" fill="none" width="6.325" height="6.324"/>
	<rect x="18.974" y="-31.622" fill="none" width="6.325" height="6.324"/>
	<rect y="-25.298" fill="none" width="6.325" height="6.325"/>
	<rect x="6.325" y="-25.298" fill="none" width="6.324" height="6.325"/>
	<rect x="12.649" y="-25.298" fill="none" width="6.325" height="6.325"/>
	<rect x="18.974" y="-25.298" fill="none" width="6.325" height="6.325"/>
	<rect y="-18.973" fill="none" width="6.325" height="6.324"/>
	<rect x="6.325" y="-18.973" fill="none" width="6.324" height="6.324"/>
	<rect x="12.649" y="-18.973" fill="none" width="6.325" height="6.324"/>
	<rect x="18.974" y="-18.973" fill="none" width="6.325" height="6.324"/>
	<rect y="-12.648" fill="none" width="6.325" height="6.324"/>
	<rect x="6.325" y="-12.648" fill="none" width="6.324" height="6.324"/>
	<rect x="12.649" y="-12.648" fill="none" width="6.325" height="6.324"/>
	<rect x="18.974" y="-12.648" fill="none" width="6.325" height="6.324"/>
	<rect y="-6.324" fill="none" width="6.325" height="6.324"/>
	<rect x="6.325" y="-6.324" fill="none" width="6.324" height="6.324"/>
	<rect x="12.649" y="-6.324" fill="none" width="6.325" height="6.324"/>
	<rect x="18.974" y="-6.324" fill="none" width="6.325" height="6.324"/>
	<rect fill="none" width="6.325" height="6.325"/>
	<rect x="6.325" fill="none" width="6.324" height="6.325"/>
	<rect x="12.649" fill="none" width="6.325" height="6.325"/>
	<rect x="18.974" fill="none" width="6.325" height="6.325"/>
</g>
</svg>
